# xmcd
#
# Track frame offsets:
# 150
# 6854
# 24608
# 39560
# 57308
# 74858
# 92643
# 106810
# 119093
# 134638
# 144378
# 165841
# 167690
# 183642
# 204329
# 209975
# 230654
# 233693
# 247500
#
# Disc length: 3388 seconds
#
#
# Revision: 0
# Processed by: cddbd v1.4PL0 Copyright (c) Steve Scherf et al.
# Submitted via: FreeRIP 2.51 
#
DISCID=120d3a13
DTITLE=Outkast - Speakerboxx
DYEAR=2003
DGENRE=Hip-Hop
TTITLE0=Intro
TTITLE1=Ghetto Musick
TTITLE2=Unhappy
TTITLE3=Bowtie
TTITLE4=The Way You Move
TTITLE5=The Rooster
TTITLE6=Bust
TTITLE7=War
TTITLE8=Church
TTITLE9=Bamboo (Interlude)
TTITLE10=Tomb of the Boom
TTITLE11=E-Mac (Interlude)
TTITLE12=Knowing
TTITLE13=Flip Flop Rock
TTITLE14=Interlude
TTITLE15=Reset
TTITLE16=D-Boi (Interlude)
TTITLE17=Last Call
TTITLE18=Bowtie (Postlude)
EXTD=
EXTT0=
EXTT1=
EXTT2=
EXTT3=
EXTT4=
EXTT5=
EXTT6=
EXTT7=
EXTT8=
EXTT9=
EXTT10=
EXTT11=
EXTT12=
EXTT13=
EXTT14=
EXTT15=
EXTT16=
EXTT17=
EXTT18=
PLAYORDER=
